<svg version="1.0" xmlns="http://www.w3.org/2000/svg" width="800" height="800" viewBox="0 0 600 600"><circle cx="300" cy="300" r="200" fill="#fff"/><path fill-rule="evenodd" d="M280 1C208.3 5.6 139.1 36.9 88 88 7.6 168.5-20.2 287.6 16.1 396.2c30.5 91.4 106.4 164.4 198.8 191.2 59.1 17.2 122.5 16.1 180-3 101.3-33.8 177.6-119.8 198.6-223.9 8-39.8 8-83.1-.1-121.9C577.1 161.2 531.9 94.3 466 50.5 422.1 21.3 373.3 4.8 320.2 1.1 303.6-.1 297.6-.1 280 1m-68.4 163.5c10.8 3.2 20.4 12.7 24 23.9 3.8 11.8 7 16.1 20.9 28.1 25.1 21.6 31.5 34.3 31.5 63.2V294h-43.7l-.7-10.8c-.8-13.4-2.4-19.2-7.7-27.2-7.1-10.5-19.4-18-29.7-18-7.8 0-17.1-1.9-22.4-4.6-11-5.6-19.3-17.9-20.5-30.6-1.5-16.5 9.8-33.4 25.6-38.2 6.1-1.9 16.5-2 22.7-.1M408.9 209c8.2 1.4 15.2 5 20.8 10.7 21.3 22 9.7 57.8-20.5 63.3-7.9 1.4-15.6.1-23.6-4l-5.8-3-4.3 3c-4.7 3.2-8.8 7.7-11.1 12.1l-1.5 2.9H340c-12.6 0-23.1-.3-23.3-.8-1-1.7 2.5-13.9 5.8-20.6 4.8-9.8 11.4-16.9 25.8-27.9 6.7-5 16.7-13.8 22.2-19.4 10.4-10.6 16.4-14.4 25.7-16.2 5.9-1.2 5.6-1.2 12.7-.1M288 304.8c0 4.1-4.1 17.7-7.1 23.2-4.3 8.1-12.1 16.4-22 23.5-11.9 8.4-17.1 12.7-27.7 22.8-12.4 11.9-17.4 14.2-30.2 14.2-8.3 0-10.3-.4-15.5-2.8-7.9-3.7-15.6-11.4-19.2-19.1-2.4-5.3-2.8-7.3-2.8-15.1 0-8.2.3-9.7 3.2-15.5 9.8-19.8 32-27 52-16.9l6.2 3.1 3.5-2.2c4.6-2.8 10.3-9.4 11.6-13.6l1.2-3.4h23.4c22.1 0 23.4.1 23.4 1.8m73 8.6c0 7.6.5 12.1 2 16.9 3.5 11.4 13.5 22.5 24.5 27.2 2.3 1 8.4 2 14.8 2.5 9.1.6 11.7 1.2 17.1 3.9 15.7 7.7 24.3 25.5 20.2 41.8-4.3 17.4-18.3 28.5-36.1 28.6-11.4 0-18-2.7-25.9-10.7-6.1-6.1-7.3-8.3-12.1-22.1-1.4-4.1-3.6-6.8-12.3-15-25.6-24.2-28.8-28.2-34-42.7-2.3-6.5-2.6-9.1-3-24.1l-.4-16.7H361z" fill="#1b2a41"/></svg>